<svg width="29" height="28" viewBox="0 0 29 28" fill="none" xmlns="http://www.w3.org/2000/svg">
<rect x="0.542969" width="27.9146" height="27.9146" rx="7.12714" fill="white" fill-opacity="0.6"/>
<path opacity="0.35" d="M9.91333 11.5486C11.9543 11.5486 13.6089 9.89402 13.6089 7.85303C13.6089 5.81203 11.9543 4.15747 9.91333 4.15747C7.87233 4.15747 6.21777 5.81203 6.21777 7.85303C6.21777 9.89402 7.87233 11.5486 9.91333 11.5486Z" fill="black"/>
<path opacity="0.35" d="M19.4163 11.5486C21.4573 11.5486 23.1118 9.89402 23.1118 7.85303C23.1118 5.81203 21.4573 4.15747 19.4163 4.15747C17.3753 4.15747 15.7207 5.81203 15.7207 7.85303C15.7207 9.89402 17.3753 11.5486 19.4163 11.5486Z" fill="black"/>
<path opacity="0.35" d="M13.0811 15.7722H21.528C23.5659 15.7722 25.2236 17.4299 25.2236 19.4678C25.2236 21.5056 23.5659 23.1633 21.528 23.1633H13.0811V15.7722Z" fill="black"/>
<path d="M16.7769 19.4678C16.7769 21.5056 15.1192 23.1633 13.0814 23.1633H7.802C6.78836 23.1633 5.85919 22.7515 5.19399 22.0758C4.51824 21.4106 4.10645 20.4814 4.10645 19.4678C4.10645 17.4299 5.76417 15.7722 7.802 15.7722H13.0814C14.095 15.7722 15.0242 16.184 15.6894 16.8598C16.3651 17.525 16.7769 18.4541 16.7769 19.4678Z" fill="black"/>
</svg>
