<svg width="30" height="29" viewBox="0 0 30 29" fill="none" xmlns="http://www.w3.org/2000/svg">
<rect x="0.754883" width="28.5086" height="28.5086" rx="7.12714" fill="white" fill-opacity="0.6"/>
<path opacity="0.35" d="M20.1027 10.536L21.4788 8.47127C21.7441 8.07474 21.6369 7.5374 21.2396 7.27304C20.8404 7.00696 20.3057 7.11581 20.0413 7.51234L18.5908 9.6885C17.4056 9.15806 16.0959 8.8557 14.7128 8.8557C13.3297 8.8557 12.0201 9.15806 10.8348 9.6885L9.38431 7.51234C9.11995 7.11581 8.5852 7.00696 8.18608 7.27304C7.78869 7.5374 7.68157 8.07387 7.94678 8.47127L9.32297 10.536C6.84013 12.2499 5.20996 15.1129 5.20996 18.3586V19.2225C5.20996 20.1771 5.98315 20.9502 6.93775 20.9502H22.4879C23.4425 20.9502 24.2157 20.1771 24.2157 19.2225V18.3586C24.2157 15.1129 22.5855 12.2499 20.1027 10.536Z" fill="black"/>
<path d="M18.6005 17.4947C19.3162 17.4947 19.8964 16.9145 19.8964 16.1989C19.8964 15.4832 19.3162 14.903 18.6005 14.903C17.8849 14.903 17.3047 15.4832 17.3047 16.1989C17.3047 16.9145 17.8849 17.4947 18.6005 17.4947Z" fill="black"/>
<path d="M10.8251 17.4947C11.5408 17.4947 12.121 16.9145 12.121 16.1989C12.121 15.4832 11.5408 14.903 10.8251 14.903C10.1095 14.903 9.5293 15.4832 9.5293 16.1989C9.5293 16.9145 10.1095 17.4947 10.8251 17.4947Z" fill="black"/>
</svg>
