<svg width="29" height="29" viewBox="0 0 29 29" fill="none" xmlns="http://www.w3.org/2000/svg">
<rect width="28.5086" height="28.5086" rx="7.12714" fill="white" fill-opacity="0.6"/>
<path d="M23.393 18.4777C22.9855 18.4777 5.85075 18.4777 5.44318 18.4777C4.56892 18.4777 3.85938 19.1872 3.85938 20.0615C3.85938 20.9357 4.56892 21.6453 5.44318 21.6453C5.85075 21.6453 22.9855 21.6453 23.393 21.6453C24.2673 21.6453 24.9768 20.9357 24.9768 20.0615C24.9768 19.1872 24.2673 18.4777 23.393 18.4777Z" fill="black"/>
<path d="M9.1393 20.5895H5.97168C5.97168 20.5895 5.97168 21.7657 5.97168 22.1733C5.97168 23.0475 6.68123 23.7571 7.55549 23.7571C8.42975 23.7571 9.1393 23.0475 9.1393 22.1733C9.1393 21.7657 9.1393 20.5895 9.1393 20.5895Z" fill="black"/>
<path d="M22.8649 20.5895H19.6973C19.6973 20.5895 19.6973 21.7657 19.6973 22.1733C19.6973 23.0475 20.4068 23.7571 21.2811 23.7571C22.1553 23.7571 22.8649 23.0475 22.8649 22.1733C22.8649 21.7657 22.8649 20.5895 22.8649 20.5895Z" fill="black"/>
<path opacity="0.35" d="M9.13951 18.4778H7.02776C5.86102 18.4778 4.91602 17.5327 4.91602 16.366V6.86315C4.91602 5.69641 5.86102 4.7514 7.02776 4.7514H9.13951C10.3062 4.7514 11.2513 5.69641 11.2513 6.86315V16.366C11.2513 17.5327 10.3062 18.4778 9.13951 18.4778Z" fill="black"/>
<path d="M15.4733 18.4778H13.3615C12.7787 18.4778 12.3057 18.0048 12.3057 17.422V7.91909C12.3057 7.33625 12.7787 6.86322 13.3615 6.86322H15.4733C16.0561 6.86322 16.5292 7.33625 16.5292 7.91909V17.422C16.5292 18.0048 16.0561 18.4778 15.4733 18.4778Z" fill="black"/>
<path opacity="0.35" d="M22.9377 18.0566L22.3274 18.3343C21.5207 18.7007 20.5704 18.3448 20.204 17.5382L16.7164 9.8683C16.3501 9.06161 16.7059 8.11133 17.5126 7.74494L18.1229 7.46724C18.9296 7.10085 19.8798 7.45668 20.2462 8.26337L23.7338 15.9332C24.1002 16.7389 23.7443 17.6891 22.9377 18.0566Z" fill="black"/>
<path d="M9.13811 13.1984H7.02637V15.3102H9.13811V13.1984Z" fill="black"/>
<path d="M9.13888 15.3102C9.72202 15.3102 10.1948 14.8374 10.1948 14.2543C10.1948 13.6712 9.72202 13.1984 9.13888 13.1984C8.55574 13.1984 8.08301 13.6712 8.08301 14.2543C8.08301 14.8374 8.55574 15.3102 9.13888 15.3102Z" fill="black"/>
<path d="M7.02755 15.3102C7.6107 15.3102 8.08343 14.8374 8.08343 14.2543C8.08343 13.6712 7.6107 13.1984 7.02755 13.1984C6.44441 13.1984 5.97168 13.6712 5.97168 14.2543C5.97168 14.8374 6.44441 15.3102 7.02755 15.3102Z" fill="black"/>
</svg>
