<svg width="28" height="28" viewBox="0 0 28 28" fill="none" xmlns="http://www.w3.org/2000/svg">
<rect x="0.0429688" width="27.9146" height="27.9146" rx="7.12714" fill="white" fill-opacity="0.6"/>
<path opacity="0.35" d="M14.1 3.56354C8.63287 3.56354 4.20117 7.99523 4.20117 13.4623V17.4219H7.17081V13.4623C7.17081 9.63547 10.2731 6.53318 14.1 6.53318C17.9269 6.53318 21.0291 9.63547 21.0291 13.4623V17.4219H23.9988V13.4623C23.9988 7.99523 19.5671 3.56354 14.1 3.56354Z" fill="black"/>
<path d="M23.0093 13.4623H21.0296C19.9357 13.4623 19.0498 14.3483 19.0498 15.4421V17.4219C19.0498 18.5157 19.9357 19.4016 21.0296 19.4016H23.0093C23.5557 19.4016 23.9992 18.9582 23.9992 18.4117V14.4522C23.9992 13.9058 23.5557 13.4623 23.0093 13.4623Z" fill="black"/>
<path d="M5.19105 13.4623H7.17081C8.26463 13.4623 9.15058 14.3483 9.15058 15.4421V17.4219C9.15058 18.5157 8.26463 19.4016 7.17081 19.4016H5.19105C4.64464 19.4016 4.20117 18.9582 4.20117 18.4117V14.4522C4.20117 13.9058 4.64464 13.4623 5.19105 13.4623Z" fill="black"/>
<path opacity="0.35" d="M7.17019 19.4017V18.4119H5.19043V19.4017C5.19043 21.5884 6.96331 23.3613 9.14995 23.3613H14.0994V21.3815H9.14995C8.05613 21.3815 7.17019 20.4956 7.17019 19.4017Z" fill="black"/>
<path d="M14.0999 24.3512C15.1933 24.3512 16.0796 23.4648 16.0796 22.3714C16.0796 21.278 15.1933 20.3917 14.0999 20.3917C13.0065 20.3917 12.1201 21.278 12.1201 22.3714C12.1201 23.4648 13.0065 24.3512 14.0999 24.3512Z" fill="black"/>
</svg>
