<svg width="25" height="25" viewBox="0 0 25 25" fill="none" xmlns="http://www.w3.org/2000/svg">
<rect x="0.414062" y="0.259766" width="24" height="24" rx="5.18919" fill="white" fill-opacity="0.6"/>
<path d="M13.1508 19.7195H11.0279C10.6373 19.7195 10.3203 19.4025 10.3203 19.0119V8.39768C10.3203 5.56721 11.7355 4.15198 14.566 4.15198H15.9812C16.3719 4.15198 16.6889 4.46899 16.6889 4.85959V6.98244C16.6889 7.37305 16.3719 7.69006 15.9812 7.69006H14.566C14.1754 7.69006 13.8584 8.00707 13.8584 8.39768V19.0119C13.8584 19.4025 13.5414 19.7195 13.1508 19.7195Z" fill="black"/>
<g opacity="0.35">
<path d="M15.7824 9.81281H13.8584V13.3509H15.4286C15.7534 13.3509 16.0364 13.1301 16.115 12.8145L16.4688 10.6917C16.5806 10.2452 16.2431 9.81281 15.7824 9.81281Z" fill="black"/>
<path d="M10.3201 9.81281H8.90488C8.51428 9.81281 8.19727 10.1298 8.19727 10.5204V12.6433C8.19727 13.0339 8.51428 13.3509 8.90488 13.3509H10.3201V9.81281Z" fill="black"/>
</g>
</svg>
