<svg width="29" height="29" viewBox="0 0 29 29" fill="none" xmlns="http://www.w3.org/2000/svg">
<rect x="0.254883" width="28.5086" height="28.5086" rx="7.12714" fill="white" fill-opacity="0.6"/>
<path d="M20.2949 6.74706C20.0098 6.74706 19.7247 6.65204 19.4396 6.65204H11.8374C10.2219 6.65204 8.98651 7.88741 8.98651 9.50289V20.9063C8.98651 21.1914 9.08154 21.4765 9.08154 21.7616C7.94119 21.3815 7.08594 20.3361 7.08594 19.0057V7.60232C7.08594 5.98684 8.32131 4.75146 9.93679 4.75146H17.5391C18.8695 4.75146 19.9148 5.60672 20.2949 6.74706Z" fill="black"/>
<path opacity="0.35" d="M8.98642 20.9062L8.03613 9.5028C8.03613 7.88732 10.2218 5.70166 11.8373 5.70166L19.4396 6.65195C21.055 6.65195 22.2904 7.88732 22.2904 9.5028V20.9062C22.2904 22.5217 21.055 23.7571 19.4396 23.7571H11.8373C10.2218 23.7571 8.98642 22.5217 8.98642 20.9062Z" fill="black"/>
<path d="M18.4899 12.3536H12.7882C12.218 12.3536 11.8379 11.9735 11.8379 11.4033C11.8379 10.8331 12.218 10.453 12.7882 10.453H18.4899C19.0601 10.453 19.4402 10.8331 19.4402 11.4033C19.4402 11.9735 19.0601 12.3536 18.4899 12.3536Z" fill="black"/>
<path d="M18.4899 16.155H12.7882C12.218 16.155 11.8379 15.7749 11.8379 15.2047C11.8379 14.6345 12.218 14.2544 12.7882 14.2544H18.4899C19.0601 14.2544 19.4402 14.6345 19.4402 15.2047C19.4402 15.7749 19.0601 16.155 18.4899 16.155Z" fill="black"/>
<path d="M18.4899 19.9557H12.7882C12.218 19.9557 11.8379 19.5756 11.8379 19.0055C11.8379 18.4353 12.218 18.0552 12.7882 18.0552H18.4899C19.0601 18.0552 19.4402 18.4353 19.4402 19.0055C19.4402 19.5756 19.0601 19.9557 18.4899 19.9557Z" fill="black"/>
</svg>
