<svg width="30" height="29" viewBox="0 0 30 29" fill="none" xmlns="http://www.w3.org/2000/svg">
<rect x="0.508789" width="28.5086" height="28.5086" rx="7.12714" fill="white" fill-opacity="0.6"/>
<path opacity="0.35" d="M19.4047 8.83124C17.6688 8.83124 16.943 9.89736 15.7402 9.89736C14.503 9.89736 13.3727 8.89731 11.8757 8.89731C9.83942 8.89821 6.74512 10.7852 6.74512 15.228C6.74512 19.2708 10.4078 23.757 12.4749 23.757C13.7311 23.7697 14.036 22.966 15.7402 22.9579C17.4462 22.9452 17.8136 23.7679 19.0716 23.757C20.488 23.7461 21.5949 22.1913 22.4031 20.9587C22.5388 20.7514 22.6556 20.5686 22.7614 20.3966C23.2583 19.5848 23.0619 18.5522 22.327 17.9467C20.5821 16.5086 20.3296 13.4777 22.2764 11.9771C22.9732 11.4395 22.9406 10.3553 22.2085 9.8675C21.2881 9.25208 20.1875 8.83124 19.4047 8.83124Z" fill="black"/>
<path d="M19.0649 5.48537C19.1319 5.05005 18.7526 4.65998 18.3264 4.7704C17.4874 4.9876 16.643 5.46727 16.09 6.04196C15.6095 6.54426 15.2049 7.22756 15.1135 7.94434C15.0619 8.3516 15.4077 8.71543 15.8113 8.64393C16.7136 8.48374 17.5607 7.97783 18.111 7.36874C18.5753 6.85649 18.9563 6.19673 19.0649 5.48537Z" fill="black"/>
</svg>
