<svg width="24" height="25" viewBox="0 0 24 25" fill="none" xmlns="http://www.w3.org/2000/svg">
<rect x="0.00878906" y="0.259766" width="24" height="24" rx="5.18919" fill="white" fill-opacity="0.6"/>
<path opacity="0.35" d="M15.1436 19.7191H8.22472C5.83682 19.7191 3.90039 17.7827 3.90039 15.3948V8.47587C3.90039 6.08798 5.83682 4.15155 8.22472 4.15155H15.1436C17.5315 4.15155 19.468 6.08798 19.468 8.47587V15.3948C19.468 17.7827 17.5315 19.7191 15.1436 19.7191Z" fill="black"/>
<path d="M11.6837 7.61084C9.29581 7.61084 7.35938 9.54727 7.35938 11.9352C7.35938 14.3231 9.29581 16.2595 11.6837 16.2595C14.0716 16.2595 16.008 14.3231 16.008 11.9352C16.008 9.54727 14.0716 7.61084 11.6837 7.61084ZM11.6837 14.5298C10.2506 14.5298 9.0891 13.3682 9.0891 11.9352C9.0891 10.5021 10.2506 9.34057 11.6837 9.34057C13.1168 9.34057 14.2783 10.5021 14.2783 11.9352C14.2783 13.3682 13.1168 14.5298 11.6837 14.5298Z" fill="black"/>
<path d="M16.0084 8.47607C16.4861 8.47607 16.8733 8.08885 16.8733 7.6112C16.8733 7.13355 16.4861 6.74634 16.0084 6.74634C15.5308 6.74634 15.1436 7.13355 15.1436 7.6112C15.1436 8.08885 15.5308 8.47607 16.0084 8.47607Z" fill="black"/>
</svg>
