<svg width="29" height="29" viewBox="0 0 29 29" fill="none" xmlns="http://www.w3.org/2000/svg">
<rect x="0.246094" width="28.5086" height="28.5086" rx="7.12714" fill="white" fill-opacity="0.6"/>
<path opacity="0.35" d="M3.53809 17.0739L5.33282 9.42704C5.59754 8.30039 6.48449 7.62085 7.42041 7.02052C9.54241 5.65728 11.3059 4.08246 12.8348 4.08246C15.3789 4.08246 17.0392 6.21696 18.2086 7.81054C19.7021 9.84394 23.8586 15.8576 24.387 16.4006C25.0498 17.0812 25.0488 18.3069 24.3432 19.1699C23.4208 20.2976 22.093 19.8775 22.093 19.8775C22.093 19.8775 22.1055 20.8896 21.2623 21.6024C20.3983 22.333 19.3665 22.0892 19.3665 22.0892C19.3665 22.0892 19.304 22.9188 18.4087 23.4837C17.4936 24.0611 16.3117 23.3815 16.3117 23.3815C16.3117 23.3815 16.2721 24.2393 15.7291 24.5916C15.1173 24.9887 14.3669 24.8897 13.8072 24.4978C13.0881 23.9933 3.53809 17.0739 3.53809 17.0739Z" fill="black"/>
<path d="M25.7853 14.1597C25.0922 12.2232 24.2678 8.84952 23.8498 7.56445C23.4319 6.27937 22.9202 5.83225 21.4423 5.38722C21.0525 5.27049 17.3838 4 16.2144 4C15.8319 4 15.1941 4.13236 14.1748 4.45858C13.5223 4.66703 12.3394 4.98804 11.9319 5.46955C11.5535 5.91667 10.4894 8.20855 9.8526 9.61869C9.5441 10.3003 9.91618 11.1174 10.6134 11.2706C11.4743 11.4593 12.4874 11.3405 13.4118 10.4973C14.1185 9.85215 15.0336 9.06214 15.6266 8.55457C15.9757 8.25336 16.4739 8.27317 16.8054 8.59626C17.3015 9.07986 17.9747 9.74063 18.2145 9.99598C18.8075 10.6255 24.0093 15.969 24.3678 16.3932C24.7607 16.8591 24.8712 17.3886 24.8712 17.3886C24.8712 17.3886 26.5899 16.4068 25.7853 14.1597Z" fill="black"/>
<path d="M13.4491 24.3164C13.7774 23.9881 13.6794 24.0861 14.0077 23.7578C14.7123 23.0532 14.7123 21.9099 14.0077 21.2043C13.3032 20.4998 12.1598 20.4998 11.4542 21.2043C11.1259 21.5326 11.2239 21.4347 10.8956 21.763C10.191 22.4675 10.191 23.6108 10.8956 24.3164C11.6012 25.021 12.7435 25.021 13.4491 24.3164Z" fill="black"/>
<path d="M8.61998 20.7676C8.94828 20.4393 8.85031 20.5372 9.17861 20.2089C9.88317 19.5044 9.88317 18.361 9.17861 17.6555C8.47406 16.9499 7.33073 16.9509 6.62514 17.6555C6.29683 17.9838 6.3948 17.8858 6.0665 18.2141C5.36195 18.9186 5.36195 20.062 6.0665 20.7676C6.77209 21.4732 7.91438 21.4732 8.61998 20.7676Z" fill="black"/>
<path d="M6.08189 18.8166C6.41019 18.4883 6.31223 18.5862 6.64053 18.2579C7.34508 17.5534 7.34508 16.4101 6.64053 15.7045C5.93598 14.9989 4.79265 14.9999 4.08705 15.7045C3.75875 16.0328 3.85672 15.9348 3.52841 16.2631C2.82386 16.9677 2.82386 18.111 3.52841 18.8166C4.23401 19.5222 5.3763 19.5222 6.08189 18.8166Z" fill="black"/>
<path d="M10.9374 22.8469C11.2657 22.5186 11.4918 22.2924 11.8201 21.9641C12.5247 21.2595 12.5247 20.1162 11.8201 19.4106C11.1156 18.7061 9.97225 18.7061 9.26666 19.4106C8.93835 19.7389 8.71219 19.9651 8.38388 20.2934C7.67933 20.9979 7.67933 22.1413 8.38388 22.8469C9.08948 23.5525 10.2328 23.5525 10.9374 22.8469Z" fill="black"/>
</svg>
