<svg width="25" height="25" viewBox="0 0 25 25" fill="none" xmlns="http://www.w3.org/2000/svg">
<rect x="0.603516" y="0.259766" width="24" height="24" rx="5.18919" fill="white" fill-opacity="0.6"/>
<path opacity="0.35" d="M12.2799 19.7195C16.5787 19.7195 20.0637 16.2346 20.0637 11.9357C20.0637 7.63684 16.5787 4.15192 12.2799 4.15192C7.98101 4.15192 4.49609 7.63684 4.49609 11.9357C4.49609 16.2346 7.98101 19.7195 12.2799 19.7195Z" fill="black"/>
<path d="M12.4531 7.03815C9.09361 7.03815 7.30957 9.29389 7.30957 11.7489C7.30957 12.8908 7.91748 14.3113 8.88968 14.7643C9.03679 14.8328 9.11619 14.8032 9.14966 14.6608C9.17534 14.5526 9.30689 14.0241 9.36605 13.7781C9.38473 13.6995 9.37539 13.6318 9.31234 13.5547C8.99087 13.164 8.73322 12.4471 8.73322 11.7785C8.73322 10.0614 10.0331 8.40031 12.2476 8.40031C14.1601 8.40031 15.4989 9.70331 15.4989 11.5668C15.4989 13.6723 14.4356 15.1309 13.0524 15.1309C12.2881 15.1309 11.716 14.4989 11.8997 13.7244C12.1192 12.7997 12.5442 11.801 12.5442 11.1332C12.5442 10.5354 12.2235 10.0372 11.5595 10.0372C10.7788 10.0372 10.1514 10.8444 10.1514 11.9271C10.1514 12.616 10.3842 13.0823 10.3842 13.0823C10.3842 13.0823 9.61279 16.3444 9.47113 16.9516C9.31467 17.6218 9.37539 18.5636 9.44311 19.1793C9.61902 19.2478 9.79415 19.3171 9.97629 19.3731C10.2939 18.8563 10.7679 18.0086 10.9438 17.333C11.0388 16.9687 11.4287 15.482 11.4287 15.482C11.6825 15.9661 12.4235 16.3756 13.2128 16.3756C15.5604 16.3756 17.2518 14.2171 17.2518 11.5341C17.2518 8.9623 15.1533 7.03815 12.4531 7.03815Z" fill="black"/>
</svg>
