<svg width="25" height="25" viewBox="0 0 25 25" fill="none" xmlns="http://www.w3.org/2000/svg">
<rect x="0.197266" y="0.259766" width="24" height="24" rx="5.18919" fill="white" fill-opacity="0.6"/>
<path d="M16.09 6.51514C15.5913 6.51514 15.1865 6.91989 15.1865 7.4186C15.1865 7.91731 15.5913 8.32206 16.09 8.32206C16.5887 8.32206 16.9934 7.91731 16.9934 7.4186C16.9934 6.91989 16.5887 6.51514 16.09 6.51514Z" fill="black"/>
<path opacity="0.35" d="M21.1791 5.40911C21.4619 5.07664 21.1068 4.58696 20.7039 4.75591C20.0308 5.03779 19.2945 5.28985 18.7723 5.39285C18.7461 5.40007 18.7244 5.40821 18.6991 5.41543C17.9077 4.63484 16.8244 4.15149 15.6246 4.15149C13.2069 4.15149 11.2464 6.112 11.2464 8.52967C11.2464 8.65706 11.2356 8.89196 11.2464 9.01573C8.51254 9.01573 6.32616 7.81593 4.64211 6.14272C4.21477 5.71809 3.48839 6.00539 3.45586 6.6062C3.44592 6.77153 3.44141 6.93777 3.44141 7.1013C3.44141 8.46462 4.50659 9.80355 6.16625 10.6329C5.86088 10.7115 5.52389 10.7685 5.17334 10.7685C4.85262 10.7685 4.40721 10.6365 4.04673 10.4965C3.76304 10.3863 3.47935 10.6483 3.56247 10.941C3.99252 12.4498 5.72084 13.4671 7.28112 13.7806C6.91612 13.9956 6.18071 14.0173 5.82203 14.0173C5.71633 14.0173 5.49769 13.9974 5.26188 13.9703C4.88062 13.927 4.62314 14.3579 4.849 14.6678C5.61423 15.7194 7.06429 16.3022 8.45834 16.3266C7.51331 17.0674 5.95936 17.4812 4.40901 17.661C3.86152 17.7251 3.74226 18.4741 4.24368 18.7027C5.66664 19.3523 7.08778 19.7191 8.66432 19.7191C15.8938 19.7191 20.0028 14.2088 20.0028 9.01483C20.0028 8.93081 20.001 8.75644 19.9983 8.58026C19.9983 8.5631 20.0028 8.54593 20.0028 8.52877C20.0028 8.50257 19.9947 8.47727 19.9947 8.45107C19.9919 8.31916 19.9892 8.19539 19.9856 8.13124C20.5313 7.73733 21.0255 7.27476 21.4546 6.75798C21.6055 6.57638 21.4248 6.31077 21.2008 6.38395C20.7165 6.54205 20.2115 6.65318 19.6911 6.71552C20.151 6.44086 20.7192 5.95028 21.1791 5.40911Z" fill="black"/>
</svg>
