<svg width="25" height="25" viewBox="0 0 25 25" fill="none" xmlns="http://www.w3.org/2000/svg">
<rect x="0.819336" y="0.259766" width="24" height="24" rx="5.18919" fill="white" fill-opacity="0.6"/>
<path opacity="0.35" d="M19.4167 4.51566C17.8244 4.32452 15.6355 4.15155 12.9276 4.15155C10.2197 4.15155 8.03071 4.32452 6.4385 4.51566C4.7079 4.72323 3.41406 6.20474 3.41406 7.94831V15.9232C3.41406 17.6659 4.7079 19.1474 6.4385 19.3559C8.03071 19.5461 10.2197 19.7191 12.9276 19.7191C15.6355 19.7191 17.8244 19.5461 19.4167 19.355C21.1473 19.1466 22.4411 17.6659 22.4411 15.9224V7.94831C22.4411 6.20474 21.1473 4.72323 19.4167 4.51566Z" fill="black"/>
<path d="M15.9719 11.1606L11.7808 8.36617C11.4945 8.1759 11.1261 8.15688 10.8251 8.31947C10.5224 8.48206 10.333 8.79774 10.333 9.14109V14.7298C10.333 15.0741 10.5224 15.3889 10.8251 15.5515C10.9626 15.625 11.114 15.6613 11.2645 15.6613C11.4452 15.6613 11.6251 15.6086 11.7808 15.5048L15.9719 12.7104C16.2314 12.5374 16.3871 12.2468 16.3871 11.9355C16.3871 11.6241 16.2314 11.3335 15.9719 11.1606Z" fill="black"/>
</svg>
